<?xml version="1.0" encoding="UTF-8"?>
<svg id="_レイヤー_1" data-name="レイヤー 1" xmlns="http://www.w3.org/2000/svg" viewBox="0 0 227.23 166.3">
  <defs>
    <style>
      .cls-1, .cls-2 {
        stroke-width: 1.04px;
      }

      .cls-1, .cls-2, .cls-3 {
        stroke-miterlimit: 10;
      }

      .cls-1, .cls-3 {
        stroke: #595757;
      }

      .cls-1, .cls-4 {
        fill: #595757;
      }

      .cls-2 {
        fill: #fefdf0;
        stroke: #231815;
      }

      .cls-5, .cls-4, .cls-6, .cls-7, .cls-8, .cls-9 {
        stroke-width: 0px;
      }

      .cls-3 {
        fill: none;
        stroke-width: 2.09px;
      }

      .cls-6 {
        fill: #6ab257;
      }

      .cls-7 {
        fill: #f5e928;
      }

      .cls-8 {
        fill: #036eb8;
      }

      .cls-9 {
        fill: #68bcc6;
      }
    </style>
  </defs>
  <g>
    <path class="cls-2" d="M224.55,10.03c-47.25-19.25-89.86-.93-105.33,7.39-1.84.98-3.94,1.53-6.18,1.53s-4.33-.56-6.18-1.53C91.39,9.1,48.78-9.22,1.53,10.03v137.01c47.25-19.25,89.86-.93,105.33,7.38,1.84-.98,3.94-1.53,6.18-1.53s4.33.56,6.18,1.53c15.47-8.31,58.08-26.63,105.33-7.38V10.03Z"/>
    <path class="cls-2" d="M106.86,155.43c-.16,0-.33-.04-.48-.12-10.96-5.89-33.51-15.76-61.44-15.76-14.84,0-29.31,2.83-43.03,8.42-.31.13-.66.09-.94-.1-.28-.19-.45-.5-.45-.84V10.03c0-.41.25-.78.63-.93C15.11,3.41,29.85.52,44.94.52c28.38,0,51.27,10.02,62.4,16,1.77.94,3.69,1.41,5.7,1.41s3.93-.48,5.7-1.42c11.12-5.97,34.02-16,62.39-16,15.1,0,29.83,2.88,43.79,8.57.38.15.63.52.63.93v137.01c0,.34-.17.65-.45.84-.28.19-.63.22-.94.1-13.72-5.59-28.2-8.42-43.03-8.42-27.93,0-50.49,9.87-61.44,15.76-.3.16-.65.16-.95,0-1.78-.94-3.7-1.42-5.7-1.42s-3.93.48-5.7,1.42c-.15.08-.31.12-.47.12ZM113.04,151.87c2.13,0,4.24.48,6.16,1.41,11.29-6,33.95-15.75,61.93-15.75,14.6,0,28.86,2.7,42.4,8.01V10.71c-13.53-5.42-27.8-8.17-42.4-8.17-27.93,0-50.49,9.87-61.44,15.76-2.05,1.08-4.34,1.65-6.65,1.65s-4.61-.57-6.65-1.65c-10.96-5.89-33.51-15.76-61.45-15.76-14.61,0-28.87,2.75-42.4,8.17v134.84c13.55-5.32,27.81-8.01,42.4-8.01,27.99,0,50.65,9.75,61.93,15.75,1.92-.92,4.04-1.41,6.16-1.41Z"/>
  </g>
  <path class="cls-5" d="M108.53,166.3l-.47-.25c-15.88-8.53-57.86-26.33-104.48-7.34-.52.21-1.1-.04-1.31-.55-.21-.52.04-1.1.55-1.31,46.96-19.13,89.25-1.57,105.73,7.18,3.83-1.84,8.49-1.84,12.32,0,16.48-8.76,58.77-26.31,105.73-7.18.52.21.76.8.55,1.31-.21.52-.8.76-1.31.55-46.62-18.99-88.59-1.19-104.48,7.34l-.47.25-.47-.25c-1.78-.94-3.7-1.42-5.7-1.42s-3.93.48-5.7,1.42l-.47.25Z"/>
  <g>
    <path class="cls-8" d="M48.74,121.71c-3.87,0-21.92,0-23.95-.19,0,0,.23-23.35.45-24.59,0,0,15.75-.45,23.31-.04,0,0,.38,20.68.19,24.82ZM45.35,99.76c-3.12.04-5.87-.11-16.28.3-.23,5.57-.41,17.6-.41,17.6,1.88,0,16.77-.15,16.77-.15.3-1.35-.07-17.75-.07-17.75ZM39.53,111.68s1.05,1.13,3.2,1.73l-1.73,3.16c-1.54-.75-3.23-1.92-4.06-3.05-.23.26-2.59,2.03-6.84,1.88,1.99-1.28,3.99-2.41,4.78-3.57l-1.88-3.2,2.26-1.43s1.35,1.92,2.18,2.63c1.47-1.47,2.59-2.74,3.95-4.93l2.52,2.56s-1.69,2.78-4.36,4.21ZM32.19,106.45s-1.35-1.99-1.84-2.93l2.14-1.54,2.03,2.44-2.33,2.03ZM38.29,105.28s-1.13-2.33-1.43-3.2l2.52-1.32,1.54,2.86-2.63,1.65Z"/>
    <path class="cls-8" d="M65.74,100.81l.08-.86-5.94-.53.07-2.52,5.83.07-.15-2.63,4.78.11-.15,2.44,6.28.11s.41,2.9.19,3.61l4.93-.23-.15,3.8-4.55-.3-.26,2.82s-5.19.34-6.39.3l-.07.79,6.39.15.07,2.63-6.77.34v.9l9.06.19-.26,3.12s-16.96,0-20.45-.41l.19-2.52,7.9-.11-.04-1.01h-4.78l.15-2.52,4.4-.11v-1.28s-2.71.19-4.96.19v-2.48l4.66-.07.04-1.13s-9.63.6-10.68.49v-3.42s10.04.11,10.6.07ZM74.46,123.55s-9.44-.23-12.07-.56l.08-6.96,12.26.34s-.26,4.89-.26,7.18ZM70.89,120.81h-4.36l-.07,1.05c.64.11,4.21.11,4.21.11l.23-1.17ZM66.53,119.31c1.92,0,3.95-.15,3.95-.15l.11-.94-3.91-.23-.15,1.32ZM70.29,100.69c.79.04,2.26,0,2.26,0l-.07-1.01-2.11-.08-.08,1.09ZM73.03,103.51l-2.26.11.07.9h2.18v-1.02Z"/>
    <path class="cls-8" d="M84.84,103.59c2.52-1.65,5.08-4.02,5.79-6.73l2.63-.11c.94,1.35,3.01,3.57,6.47,5.15-2.56.68-5.68.23-7.41-1.58-1.39,2.29-4.78,3.69-7.48,3.27ZM88.26,106.22s8.31-.07,9.7-.23c0,0,0,5.45-.68,8.5,0,0-2.52.41-5.04.41l.15,4.17s1.73-.26,2.29-.68l-.94-1.96,2.48-.87s1.35,1.73,2.18,4.21c-.75.83-4.96,2.82-9.63,2.78-.3-3.08-.41-12.75-.53-16.36ZM94.27,102.35l-.94,3.46s-1.35-1.88-2.33-3.05l3.27-.41ZM91.64,108.18l.15,1.28,2.93-.07c.11-.6.07-1.35.07-1.35l-3.16.15ZM94.95,111.11h-2.82l.19,1.69c.98-.04,1.35-.08,2.52-.23,0-.53.11-1.47.11-1.47ZM100.67,103.52s.04-3.46,0-4.78l5.83-.15-.38-3.5,4.96.08-.6,3.2,7.18.11s-1.54,4.74-2.22,6.02l-1.5-3.84-9.81.15v2.52l-3.46.19ZM113.71,112.24l-6.84.19.19,3.16c1.77.19,4.02.23,7.52.19,0,0,.49,4.14.19,6.84,0,0-9.48.75-11.73.56,0,0,.26-16.39.26-17.6,0,0,7.6-.15,10.45-.11,0,0,.41,4.32-.04,6.77ZM110.74,109.91l-.19-1.84c-.38,0-3.5.08-3.5.08l.11,2.14c1.17,0,3.57-.38,3.57-.38ZM107.66,117.88l.11,3.05c1.69.3,3.12-.04,3.12-.04l-.3-2.93-2.93-.07Z"/>
  </g>
  <g>
    <g>
      <path class="cls-4" d="M144.23,123.43v-23.75l-8.63,9.31v2.44h-.91v-2.44l-8.63-9.31v23.75h-.95v-24.94l.84-.13,9.2,9.87,9.16-9.87.87.13v24.94h-.95Z"/>
      <path class="cls-4" d="M170.18,123.46c.46-3.64.72-7.49.72-11.56,0-4.29-.27-8.55-.8-12.78h-13.38v11.31h8.17v.69h-8.17v12.35h-.91v-25.04h15.09c.57,4.48.87,9.02.87,13.63,0,4.01-.23,7.8-.68,11.41h-.91Z"/>
      <path class="cls-4" d="M198.69,106.07c0,2.57-.19,5.11-.65,7.61h-7.56v-.72h6.76c.38-2.38.57-4.67.57-6.86s-.19-4.54-.57-6.99h-13.75v24.35h-.91v-25.04h15.47c.46,2.54.65,5.08.65,7.65Z"/>
    </g>
    <g>
      <path class="cls-4" d="M144.23,123.43v-23.75l-8.63,9.31v2.44h-.91v-2.44l-8.63-9.31v23.75h-.95v-24.94l.84-.13,9.2,9.87,9.16-9.87.87.13v24.94h-.95Z"/>
      <path class="cls-4" d="M170.18,123.46c.46-3.64.72-7.49.72-11.56,0-4.29-.27-8.55-.8-12.78h-13.38v11.31h8.17v.69h-8.17v12.35h-.91v-25.04h15.09c.57,4.48.87,9.02.87,13.63,0,4.01-.23,7.8-.68,11.41h-.91Z"/>
      <path class="cls-4" d="M198.69,106.07c0,2.57-.19,5.11-.65,7.61h-7.56v-.72h6.76c.38-2.38.57-4.67.57-6.86s-.19-4.54-.57-6.99h-13.75v24.35h-.91v-25.04h15.47c.46,2.54.65,5.08.65,7.65Z"/>
    </g>
    <g>
      <path class="cls-3" d="M144.23,123.43v-23.75l-8.63,9.31v2.44h-.91v-2.44l-8.63-9.31v23.75h-.95v-24.94l.84-.13,9.2,9.87,9.16-9.87.87.13v24.94h-.95Z"/>
      <path class="cls-3" d="M170.18,123.46c.46-3.64.72-7.49.72-11.56,0-4.29-.27-8.55-.8-12.78h-13.38v11.31h8.17v.69h-8.17v12.35h-.91v-25.04h15.09c.57,4.48.87,9.02.87,13.63,0,4.01-.23,7.8-.68,11.41h-.91Z"/>
      <path class="cls-3" d="M198.69,106.07c0,2.57-.19,5.11-.65,7.61h-7.56v-.72h6.76c.38-2.38.57-4.67.57-6.86s-.19-4.54-.57-6.99h-13.75v24.35h-.91v-25.04h15.47c.46,2.54.65,5.08.65,7.65Z"/>
    </g>
  </g>
  <g>
    <path class="cls-1" d="M51.86,44.41l-1.57-9.9.54-.09,1.57,9.9-.54.09Z"/>
    <path class="cls-1" d="M58.69,43.43l-.16-.21,7.71-9.33-.09-.95-7.49.71-.03-.27,8.04-.76.12,1.32-7.61,9.17,9.32-.88.03.27-9.84.93Z"/>
    <path class="cls-1" d="M83.09,36.13c.09,1.85-.02,3.71-.3,5.56l-9.07.46-.5-10,.55-.03.48,9.71,8.02-.4c.24-1.67.34-3.4.25-5.18-.07-1.46-.26-2.97-.57-4.51l.55-.07c.31,1.53.52,3.01.59,4.46Z"/>
    <path class="cls-1" d="M100.42,41.21l-.22-9.5-5.11,3.84.02.98h-.55s-.02-.97-.02-.97l-5.28-3.6.22,9.5h-.57s-.23-9.96-.23-9.96l.5-.06,5.63,3.82,5.42-4.07.53.04.23,9.97h-.57Z"/>
    <path class="cls-1" d="M107.95,41.14l-.09-10.01h.55s.09,10.01.09,10.01h-.55Z"/>
    <path class="cls-1" d="M124.47,31.08c.35,1.65.51,3.31.51,4.97,0,1.65-.16,3.33-.5,5.04h-8.69c-.3-1.67-.46-3.34-.46-5,0-1.67.16-3.33.45-5h8.69ZM124.02,31.33h-7.71c-.3,1.62-.43,3.23-.43,4.8,0,1.57.14,3.13.44,4.69l7.71-.03c.27-1.58.41-3.16.41-4.72,0-1.58-.14-3.14-.42-4.74Z"/>
    <path class="cls-1" d="M135.27,31.4l-.09,9.73h-.55s.09-9.74.09-9.74l-4.67-.04v-.28s9.93.08,9.93.08v.28s-4.71-.04-4.71-.04Z"/>
    <path class="cls-1" d="M147.45,41.31v-.28s6.48.15,6.48.15c.22-.77.34-1.57.36-2.4.02-.83-.05-1.67-.24-2.53l-8.65-.21c-.19-.81-.28-1.6-.26-2.4s.15-1.61.38-2.41l7.02.17v.28s-6.55-.16-6.55-.16c-.18.7-.29,1.41-.3,2.11-.02.7.06,1.42.2,2.15l8.65.21c.21.86.3,1.76.28,2.74-.02.97-.16,1.88-.41,2.74l-6.95-.17Z"/>
    <path class="cls-1" d="M170.41,36.63c-.09,1.85-.39,3.69-.85,5.5l-9.07-.46.5-10,.55.03-.48,9.71,8.02.4c.4-1.64.67-3.35.76-5.13.07-1.46.03-2.98-.12-4.55h.55c.15,1.54.22,3.04.14,4.49Z"/>
  </g>
  <g>
    <path class="cls-6" d="M26.53,59.51c3.01.27,5.82.43,8.59.57-.87-1.67-1.6-2.71-1.84-3.14h12.03c-.64,2.44-.77,3.07-.8,3.18,2.11-.07,4.28-.17,6.62-.3l-1.54,7.12c-2.04-.13-3.88-.2-5.62-.27,0,.6,0,1.17-.03,1.77,1.77-.03,3.61-.07,5.55-.17l-1,5.08c-1.64-.07-3.14-.1-4.58-.1,0,.9-.03,1.77-.03,2.57,3.84,1.8,6.02,4.88,6.52,6.05l-1.5,1.14c-.7-.54-2.41-2.27-5.35-3.31-.53,2.37-2.17,5.78-7.45,5.78-5.68,0-8.52-2.51-8.52-5.15,0-2.84,3.38-5.85,10.09-5.85.5,0,.97.03,1.47.07-.03-.43-.1-.87-.13-1.3-2.71.03-5.62.1-9.16.2l-1.3-5.48c3.34.3,6.45.43,9.69.5-.17-.64-.33-1.27-.5-1.84-2.84.03-5.82.17-9.36.4l-1.84-7.52ZM39.19,78.83c-3.98-.17-4.21,2-4.21,2.34,0,.67.47,1.24,1.4,1.24,1.67,0,2.61-1,2.81-3.58Z"/>
    <path class="cls-9" d="M63.25,69.37l-1.57-8.66c2.04.23,4.35.4,6.79.5.17-1.57.23-3.14.2-4.48l10.96.47c-.87,1.54-1.6,2.94-2.24,4.18,3.74-.07,7.42-.23,10.56-.57l-1.4,8.46c-3.74-.43-8.06-.5-12.5-.4-.4,1.07-.67,1.87-.94,2.51,1.4-.33,2.77-.47,4.01-.47,5.58,0,9.36,2.87,9.36,6.42,0,3.91-4.35,8.09-14.27,8.09-.64,0-1.27,0-1.94-.03l.3-1.91c5.05.23,7.99-2.21,7.99-4.48,0-1.67-1.7-3.21-5.35-3.21-1.54,0-3.38.27-5.62.9l-2.24-1.81c.67-1.44,1.3-3.48,1.84-5.75-1.4.1-2.71.17-3.94.23Z"/>
    <path class="cls-7" d="M109.85,73.82c1.4,3.38,4.91,8.62,7.22,11.53l-4.41.3-13.84-12.94c5.05-5.85,7.49-9.59,10.83-16.04l12.13,6.02-3.01,2.81h-5.08l.47,4.35-4.31,3.98ZM115.5,72.98l-.7-6.48h4.14v6.48h-3.44ZM120.41,72.98l-.57-6.48h4.14l-.27,6.48h-3.31Z"/>
    <path class="cls-9" d="M159.23,76.19c0,8.09-9.46,9.22-12.77,9.22-6.08,0-8.62-2.64-8.62-5.28s2.64-5.45,6.85-5.45c3.88,0,5.51,2.71,5.51,5.18,0,.7-.13,1.37-.37,1.97.03,0,3.34-.53,3.34-3.61,0-2.61-2.81-5.55-7.39-5.55-5.55,0-8.49,3.24-8.49,3.24l-2.34-2.61c5.05-3.88,7.09-6.32,9.46-8.26-2.11-.23-5.58.03-8.32.94l-1.74-8.12c4.58.33,15.88,1.04,22.66.97l.4,2.41c-1.07.64-8.99,4.28-11.53,6.82.57-.2,1.97-.43,3.64-.43,4.01,0,9.69,1.44,9.69,8.56ZM145.36,79.86c-.94,0-1.37.54-1.37,1.1,0,.64.57,1.34,1.7,1.34.97,0,1.44-.5,1.44-1.07,0-.67-.64-1.37-1.77-1.37Z"/>
    <path class="cls-6" d="M194.07,79.06c-.7-.3-1.54-.67-2.54-1.07-.97,2.31-2.17,4.48-3.71,6.55l-1.54-.57c.73-2.61,1.24-5.01,1.47-7.32-1.54-.4-3.24-.7-5.08-.74-.57,3.34-1.14,8.62-6.95,8.62-3.74,0-6.15-3.24-6.15-6.72,0-5.38,4.38-7.69,9.66-8.39.03-1.14.03-2.04.03-2.47-2.14.07-4.65.3-7.85,1.07l-1.5-9.23c2.17.23,9.16.67,13.8,0l1.67,1.67c-.37,1.4-1,5.01-1.6,8.69,1.34,0,2.64.1,3.91.2-.2-1.8-.57-3.58-1.1-5.35l9.12,1.4c-.54,1.74-1.04,3.41-1.5,5.01,1.4.33,2.44.7,2.87.97l-3.01,7.65ZM178.8,76.29c-2.04.43-4.08,1.3-4.08,2.97,0,.77.53,1.4,1.6,1.4,1.97,0,2.37-3.58,2.47-4.38Z"/>
  </g>
</svg>